<svg width="1320" height="308" viewBox="0 0 1320 308" fill="none" xmlns="http://www.w3.org/2000/svg">
<path d="M0 3.42818H49.8571C60.7826 3.42818 69.0151 7.28488 74.5546 14.9982C80.2486 22.426 84.0182 32.9961 85.8647 46.7088C87.8656 60.4215 88.8654 78.5623 88.8654 101.131C88.8654 122.843 87.9421 140.698 86.0955 154.696C84.249 168.409 80.4022 179.265 74.5546 187.264C68.8612 195.263 60.4748 199.263 49.3954 199.263H26.3135V298.251H0V3.42818ZM43.1633 155.125C49.1646 155.125 53.4732 153.696 56.0892 150.84C58.7052 147.983 60.3978 142.983 61.1672 135.841C61.9366 128.699 62.3213 117.129 62.3213 101.131C62.3213 85.4187 61.9366 73.9915 61.1672 66.8494C60.3978 59.7074 58.7052 54.708 56.0892 51.8511C53.4732 48.9943 49.2416 47.5659 43.3941 47.5659H26.3135V155.125H43.1633ZM174.437 298.251L157.356 190.692H134.736V298.251H108.422V3.42818H159.664C170.744 3.42818 179.053 6.99919 184.593 14.1412C190.286 21.2833 194.056 31.4249 195.903 44.5662C197.903 57.7077 198.904 75.1342 198.904 96.8459C198.904 117.986 197.749 135.556 195.441 149.554C193.287 163.552 188.824 173.837 182.054 180.408L202.135 298.251H174.437ZM153.432 146.554C159.279 146.554 163.511 145.269 166.127 142.698C168.743 139.841 170.436 135.128 171.205 128.557C172.129 121.7 172.59 111.13 172.59 96.8459C172.59 82.5619 172.129 72.1345 171.205 65.5638C170.436 58.9932 168.743 54.4222 166.127 51.8511C163.511 48.9943 159.279 47.5659 153.432 47.5659H134.736V146.554H153.432ZM266.588 301.679C251.046 301.679 239.966 297.537 233.35 289.252C226.733 280.682 222.578 266.826 220.886 247.686C219.193 228.259 218.347 195.978 218.347 150.84C218.347 105.702 219.193 73.563 220.886 54.4222C222.578 34.996 226.733 21.1404 233.35 12.8557C239.966 4.28522 251.046 0 266.588 0C282.129 0 293.209 4.28522 299.826 12.8557C306.442 21.1404 310.597 34.996 312.29 54.4222C314.137 73.8486 315.06 105.988 315.06 150.84C315.06 195.691 314.137 227.83 312.29 247.257C310.597 266.684 306.442 280.682 299.826 289.252C293.209 297.537 282.129 301.679 266.588 301.679ZM266.588 257.542C274.128 257.542 279.283 255.827 282.053 252.399C284.823 248.686 286.592 240.115 287.362 226.688C288.285 212.975 288.747 187.692 288.747 150.84C288.747 113.987 288.285 88.8469 287.362 75.4198C286.592 61.7071 284.823 53.1367 282.053 49.7085C279.283 45.9947 274.128 44.1377 266.588 44.1377C259.047 44.1377 253.893 45.9947 251.123 49.7085C248.507 53.1367 246.737 61.5644 245.814 74.9913C245.044 88.4183 244.66 113.701 244.66 150.84C244.66 187.978 245.044 213.26 245.814 226.688C246.737 240.115 248.507 248.686 251.123 252.399C253.893 255.827 259.047 257.542 266.588 257.542ZM339.016 298.251V3.42818H411.032V47.5659H365.33V134.127H405.954V178.265H365.33V298.251H339.016ZM521.255 3.42818V168.409C521.255 206.976 520.332 235.115 518.486 252.828C516.639 270.254 512.562 282.824 506.252 290.538C499.944 297.966 489.557 301.679 475.092 301.679C460.627 301.679 450.24 297.966 443.931 290.538C437.622 282.824 433.544 270.254 431.698 252.828C430.005 235.115 429.158 206.976 429.158 168.409V3.42818H455.472V186.835C455.472 209.69 455.78 225.688 456.395 234.83C457.165 243.686 458.858 249.685 461.473 252.828C464.089 255.971 468.629 257.542 475.092 257.542C481.709 257.542 486.325 255.971 488.941 252.828C491.557 249.685 493.173 243.686 493.788 234.83C494.558 225.688 494.942 209.69 494.942 186.835V3.42818H521.255ZM616.767 298.251L573.834 116.129H572.911V298.251H547.521V3.42818H573.834L614.92 176.551H615.843V3.42818H641.233V298.251H616.767ZM735.735 298.251L707.112 170.98H694.879V298.251H668.565V3.42818H694.879V126.842H707.112L736.659 3.42818H763.665L728.811 144.412L764.357 298.251H735.735ZM894.741 298.251L887.124 231.402H846.5L839.114 298.251H812.569L848.116 3.42818H886.201L921.747 298.251H894.741ZM867.505 51.8511H866.12L851.347 187.692H882.046L867.505 51.8511ZM1029.11 3.42818V168.409C1029.11 206.976 1028.18 235.115 1026.34 252.828C1024.49 270.254 1020.41 282.824 1014.1 290.538C1007.79 297.966 997.405 301.679 982.943 301.679C968.474 301.679 958.087 297.966 951.783 290.538C945.471 282.824 941.396 270.254 939.549 252.828C937.854 235.115 937.01 206.976 937.01 168.409V3.42818H963.323V186.835C963.323 209.69 963.626 225.688 964.247 234.83C965.011 243.686 966.706 249.685 969.325 252.828C971.936 255.971 976.48 257.542 982.943 257.542C989.558 257.542 994.174 255.971 996.792 252.828C999.404 249.685 1001.02 243.686 1001.64 234.83C1002.4 225.688 1002.79 209.69 1002.79 186.835V3.42818H1029.11ZM1055.37 3.42818H1096.23C1112.22 3.42818 1123.53 7.57056 1130.16 15.8553C1136.92 23.8544 1141.16 37.2814 1142.85 56.1363C1144.7 74.9913 1145.62 106.559 1145.62 150.84C1145.62 195.121 1144.7 226.688 1142.85 245.543C1141.16 264.398 1136.92 277.967 1130.16 286.252C1123.53 294.251 1112.22 298.251 1096.23 298.251H1055.37V3.42818ZM1095.53 254.113C1103.68 254.113 1109.22 252.399 1112.15 248.971C1115.07 245.543 1117 237.401 1117.92 224.545C1118.85 211.404 1119.31 186.835 1119.31 150.84C1119.31 115.13 1118.85 90.7038 1117.92 77.5624C1117 64.4211 1115.07 56.1363 1112.15 52.7081C1109.22 49.28 1103.68 47.5659 1095.53 47.5659H1081.68V254.113H1095.53ZM1169.89 298.251V3.42818H1196.43V298.251H1169.89ZM1268.99 301.679C1253.44 301.679 1242.36 297.537 1235.75 289.252C1229.13 280.682 1224.97 266.826 1223.28 247.686C1221.59 228.259 1220.75 195.978 1220.75 150.84C1220.75 105.702 1221.59 73.563 1223.28 54.4222C1224.97 34.996 1229.13 21.1404 1235.75 12.8557C1242.36 4.28522 1253.44 0 1268.99 0C1284.52 0 1295.6 4.28522 1302.22 12.8557C1308.84 21.1404 1312.99 34.996 1314.69 54.4222C1316.54 73.8486 1317.46 105.988 1317.46 150.84C1317.46 195.691 1316.54 227.83 1314.69 247.257C1312.99 266.684 1308.84 280.682 1302.22 289.252C1295.6 297.537 1284.52 301.679 1268.99 301.679ZM1268.99 257.542C1276.52 257.542 1281.68 255.827 1284.45 252.399C1287.22 248.686 1288.99 240.115 1289.76 226.688C1290.68 212.975 1291.15 187.692 1291.15 150.84C1291.15 113.987 1290.68 88.8469 1289.76 75.4198C1288.99 61.7071 1287.22 53.1367 1284.45 49.7085C1281.68 45.9947 1276.52 44.1377 1268.99 44.1377C1261.44 44.1377 1256.29 45.9947 1253.52 49.7085C1250.9 53.1367 1249.14 61.5644 1248.21 74.9913C1247.44 88.4183 1247.06 113.701 1247.06 150.84C1247.06 187.978 1247.44 213.26 1248.21 226.688C1249.14 240.115 1250.9 248.686 1253.52 252.399C1256.29 255.827 1261.44 257.542 1268.99 257.542Z" fill="url(#paint0_linear_9272_1374)"/>
<defs>
<linearGradient id="paint0_linear_9272_1374" x1="0" y1="150.84" x2="1317.46" y2="150.84" gradientUnits="userSpaceOnUse">
<stop stop-color="#1B1B1B"/>
<stop offset="1" stop-color="#1D1D1D"/>
</linearGradient>
</defs>
</svg>
